<mxfile host="app.diagrams.net" agent="Mozilla/5.0 (Windows NT 10.0; Win64; x64) AppleWebKit/537.36 (KHTML, like Gecko) Chrome/131.0.0.0 Safari/537.36" version="25.0.1">
  <diagram name="Page-1" id="lZ8IKWE_7OETiADFwcYm">
    <mxGraphModel dx="2537" dy="1067" grid="1" gridSize="10" guides="1" tooltips="1" connect="1" arrows="1" fold="1" page="1" pageScale="1" pageWidth="850" pageHeight="1100" math="0" shadow="0">
      <root>
        <mxCell id="0" />
        <mxCell id="1" parent="0" />
        <mxCell id="c9aiSARojn3Q_ybmlD1e-5" value="" style="edgeStyle=orthogonalEdgeStyle;rounded=0;orthogonalLoop=1;jettySize=auto;html=1;" edge="1" parent="1" source="c9aiSARojn3Q_ybmlD1e-1" target="c9aiSARojn3Q_ybmlD1e-4">
          <mxGeometry relative="1" as="geometry" />
        </mxCell>
        <mxCell id="c9aiSARojn3Q_ybmlD1e-1" value="Start game&lt;div&gt;Black Jack!&lt;/div&gt;" style="rounded=0;whiteSpace=wrap;html=1;" vertex="1" parent="1">
          <mxGeometry x="370" y="40" width="120" height="60" as="geometry" />
        </mxCell>
        <mxCell id="c9aiSARojn3Q_ybmlD1e-7" value="" style="edgeStyle=orthogonalEdgeStyle;rounded=0;orthogonalLoop=1;jettySize=auto;html=1;" edge="1" parent="1" source="c9aiSARojn3Q_ybmlD1e-4" target="c9aiSARojn3Q_ybmlD1e-6">
          <mxGeometry relative="1" as="geometry" />
        </mxCell>
        <mxCell id="c9aiSARojn3Q_ybmlD1e-4" value="show logo" style="whiteSpace=wrap;html=1;rounded=0;" vertex="1" parent="1">
          <mxGeometry x="370" y="130" width="120" height="60" as="geometry" />
        </mxCell>
        <mxCell id="c9aiSARojn3Q_ybmlD1e-9" value="" style="edgeStyle=orthogonalEdgeStyle;rounded=0;orthogonalLoop=1;jettySize=auto;html=1;" edge="1" parent="1" source="c9aiSARojn3Q_ybmlD1e-6" target="c9aiSARojn3Q_ybmlD1e-8">
          <mxGeometry relative="1" as="geometry" />
        </mxCell>
        <mxCell id="c9aiSARojn3Q_ybmlD1e-11" value="" style="edgeStyle=orthogonalEdgeStyle;rounded=0;orthogonalLoop=1;jettySize=auto;html=1;" edge="1" parent="1" source="c9aiSARojn3Q_ybmlD1e-6" target="c9aiSARojn3Q_ybmlD1e-10">
          <mxGeometry relative="1" as="geometry" />
        </mxCell>
        <mxCell id="c9aiSARojn3Q_ybmlD1e-12" value="Start game" style="edgeLabel;html=1;align=center;verticalAlign=middle;resizable=0;points=[];" vertex="1" connectable="0" parent="c9aiSARojn3Q_ybmlD1e-11">
          <mxGeometry x="-0.2833" y="-1" relative="1" as="geometry">
            <mxPoint as="offset" />
          </mxGeometry>
        </mxCell>
        <mxCell id="c9aiSARojn3Q_ybmlD1e-6" value="introduction&amp;nbsp;&lt;div&gt;user want play?&lt;/div&gt;" style="whiteSpace=wrap;html=1;rounded=0;" vertex="1" parent="1">
          <mxGeometry x="370" y="270" width="120" height="60" as="geometry" />
        </mxCell>
        <mxCell id="c9aiSARojn3Q_ybmlD1e-8" value="End" style="whiteSpace=wrap;html=1;rounded=0;" vertex="1" parent="1">
          <mxGeometry x="170" y="270" width="120" height="60" as="geometry" />
        </mxCell>
        <mxCell id="c9aiSARojn3Q_ybmlD1e-14" value="" style="edgeStyle=orthogonalEdgeStyle;rounded=0;orthogonalLoop=1;jettySize=auto;html=1;" edge="1" parent="1" source="c9aiSARojn3Q_ybmlD1e-10" target="c9aiSARojn3Q_ybmlD1e-13">
          <mxGeometry relative="1" as="geometry" />
        </mxCell>
        <mxCell id="c9aiSARojn3Q_ybmlD1e-10" value="2 random card --&amp;gt; user&lt;div&gt;1 random card --&amp;gt; computer&lt;/div&gt;" style="whiteSpace=wrap;html=1;rounded=0;" vertex="1" parent="1">
          <mxGeometry x="342.5" y="420" width="175" height="60" as="geometry" />
        </mxCell>
        <mxCell id="c9aiSARojn3Q_ybmlD1e-47" value="" style="edgeStyle=orthogonalEdgeStyle;rounded=0;orthogonalLoop=1;jettySize=auto;html=1;" edge="1" parent="1" source="c9aiSARojn3Q_ybmlD1e-13" target="c9aiSARojn3Q_ybmlD1e-46">
          <mxGeometry relative="1" as="geometry" />
        </mxCell>
        <mxCell id="c9aiSARojn3Q_ybmlD1e-72" value="" style="edgeStyle=orthogonalEdgeStyle;rounded=0;orthogonalLoop=1;jettySize=auto;html=1;" edge="1" parent="1" source="c9aiSARojn3Q_ybmlD1e-13" target="c9aiSARojn3Q_ybmlD1e-71">
          <mxGeometry relative="1" as="geometry" />
        </mxCell>
        <mxCell id="c9aiSARojn3Q_ybmlD1e-13" value="wanna pick card?" style="whiteSpace=wrap;html=1;rounded=0;" vertex="1" parent="1">
          <mxGeometry x="370" y="680" width="120" height="60" as="geometry" />
        </mxCell>
        <mxCell id="c9aiSARojn3Q_ybmlD1e-19" value="" style="edgeStyle=orthogonalEdgeStyle;rounded=0;orthogonalLoop=1;jettySize=auto;html=1;" edge="1" parent="1" source="c9aiSARojn3Q_ybmlD1e-15" target="c9aiSARojn3Q_ybmlD1e-18">
          <mxGeometry relative="1" as="geometry" />
        </mxCell>
        <mxCell id="c9aiSARojn3Q_ybmlD1e-15" value="Calculate Winer()" style="whiteSpace=wrap;html=1;rounded=0;" vertex="1" parent="1">
          <mxGeometry x="-10" y="680" width="120" height="60" as="geometry" />
        </mxCell>
        <mxCell id="c9aiSARojn3Q_ybmlD1e-17" value="No" style="text;html=1;align=center;verticalAlign=middle;resizable=0;points=[];autosize=1;strokeColor=none;fillColor=none;" vertex="1" parent="1">
          <mxGeometry x="310" y="688" width="40" height="30" as="geometry" />
        </mxCell>
        <mxCell id="c9aiSARojn3Q_ybmlD1e-18" value="End" style="whiteSpace=wrap;html=1;rounded=0;" vertex="1" parent="1">
          <mxGeometry x="-150" y="680" width="120" height="60" as="geometry" />
        </mxCell>
        <mxCell id="c9aiSARojn3Q_ybmlD1e-22" value="" style="edgeStyle=orthogonalEdgeStyle;rounded=0;orthogonalLoop=1;jettySize=auto;html=1;" edge="1" parent="1" source="c9aiSARojn3Q_ybmlD1e-20" target="c9aiSARojn3Q_ybmlD1e-21">
          <mxGeometry relative="1" as="geometry" />
        </mxCell>
        <mxCell id="c9aiSARojn3Q_ybmlD1e-20" value="Calculate Winner()" style="whiteSpace=wrap;html=1;" vertex="1" parent="1">
          <mxGeometry x="770" y="120" width="120" height="60" as="geometry" />
        </mxCell>
        <mxCell id="c9aiSARojn3Q_ybmlD1e-24" value="" style="edgeStyle=orthogonalEdgeStyle;rounded=0;orthogonalLoop=1;jettySize=auto;html=1;" edge="1" parent="1" source="c9aiSARojn3Q_ybmlD1e-21" target="c9aiSARojn3Q_ybmlD1e-23">
          <mxGeometry relative="1" as="geometry" />
        </mxCell>
        <mxCell id="c9aiSARojn3Q_ybmlD1e-21" value="print info both" style="whiteSpace=wrap;html=1;" vertex="1" parent="1">
          <mxGeometry x="770" y="220" width="120" height="60" as="geometry" />
        </mxCell>
        <mxCell id="c9aiSARojn3Q_ybmlD1e-26" value="" style="edgeStyle=orthogonalEdgeStyle;rounded=0;orthogonalLoop=1;jettySize=auto;html=1;" edge="1" parent="1" source="c9aiSARojn3Q_ybmlD1e-23" target="c9aiSARojn3Q_ybmlD1e-25">
          <mxGeometry relative="1" as="geometry" />
        </mxCell>
        <mxCell id="c9aiSARojn3Q_ybmlD1e-23" value="release the winner" style="whiteSpace=wrap;html=1;" vertex="1" parent="1">
          <mxGeometry x="770" y="320" width="120" height="60" as="geometry" />
        </mxCell>
        <mxCell id="c9aiSARojn3Q_ybmlD1e-32" value="" style="edgeStyle=orthogonalEdgeStyle;rounded=0;orthogonalLoop=1;jettySize=auto;html=1;" edge="1" parent="1" source="c9aiSARojn3Q_ybmlD1e-25" target="c9aiSARojn3Q_ybmlD1e-31">
          <mxGeometry relative="1" as="geometry" />
        </mxCell>
        <mxCell id="c9aiSARojn3Q_ybmlD1e-25" value="ask about want play again?" style="whiteSpace=wrap;html=1;" vertex="1" parent="1">
          <mxGeometry x="770" y="420" width="120" height="60" as="geometry" />
        </mxCell>
        <mxCell id="c9aiSARojn3Q_ybmlD1e-30" value="Yes" style="text;html=1;align=center;verticalAlign=middle;resizable=0;points=[];autosize=1;strokeColor=none;fillColor=none;" vertex="1" parent="1">
          <mxGeometry x="690" y="430" width="40" height="30" as="geometry" />
        </mxCell>
        <mxCell id="c9aiSARojn3Q_ybmlD1e-31" value="Print thanks good bye" style="whiteSpace=wrap;html=1;" vertex="1" parent="1">
          <mxGeometry x="980" y="420" width="120" height="60" as="geometry" />
        </mxCell>
        <mxCell id="c9aiSARojn3Q_ybmlD1e-33" value="No" style="text;html=1;align=center;verticalAlign=middle;resizable=0;points=[];autosize=1;strokeColor=none;fillColor=none;" vertex="1" parent="1">
          <mxGeometry x="920" y="430" width="40" height="30" as="geometry" />
        </mxCell>
        <mxCell id="c9aiSARojn3Q_ybmlD1e-38" value="" style="edgeStyle=orthogonalEdgeStyle;rounded=0;orthogonalLoop=1;jettySize=auto;html=1;" edge="1" parent="1" source="c9aiSARojn3Q_ybmlD1e-34" target="c9aiSARojn3Q_ybmlD1e-37">
          <mxGeometry relative="1" as="geometry" />
        </mxCell>
        <mxCell id="c9aiSARojn3Q_ybmlD1e-41" value="" style="edgeStyle=orthogonalEdgeStyle;rounded=0;orthogonalLoop=1;jettySize=auto;html=1;" edge="1" parent="1" source="c9aiSARojn3Q_ybmlD1e-34" target="c9aiSARojn3Q_ybmlD1e-40">
          <mxGeometry relative="1" as="geometry" />
        </mxCell>
        <mxCell id="c9aiSARojn3Q_ybmlD1e-59" value="" style="edgeStyle=orthogonalEdgeStyle;rounded=0;orthogonalLoop=1;jettySize=auto;html=1;" edge="1" parent="1" source="c9aiSARojn3Q_ybmlD1e-34" target="c9aiSARojn3Q_ybmlD1e-58">
          <mxGeometry relative="1" as="geometry" />
        </mxCell>
        <mxCell id="c9aiSARojn3Q_ybmlD1e-34" value="print info (just User)&lt;div&gt;and first computer card&lt;/div&gt;" style="whiteSpace=wrap;html=1;rounded=0;" vertex="1" parent="1">
          <mxGeometry x="370" y="940" width="120" height="60" as="geometry" />
        </mxCell>
        <mxCell id="c9aiSARojn3Q_ybmlD1e-36" value="Yes" style="text;html=1;align=center;verticalAlign=middle;resizable=0;points=[];autosize=1;strokeColor=none;fillColor=none;" vertex="1" parent="1">
          <mxGeometry x="430" y="768" width="40" height="30" as="geometry" />
        </mxCell>
        <mxCell id="c9aiSARojn3Q_ybmlD1e-52" value="" style="edgeStyle=orthogonalEdgeStyle;rounded=0;orthogonalLoop=1;jettySize=auto;html=1;" edge="1" parent="1" source="c9aiSARojn3Q_ybmlD1e-37" target="c9aiSARojn3Q_ybmlD1e-51">
          <mxGeometry relative="1" as="geometry" />
        </mxCell>
        <mxCell id="c9aiSARojn3Q_ybmlD1e-55" value="" style="edgeStyle=orthogonalEdgeStyle;rounded=0;orthogonalLoop=1;jettySize=auto;html=1;" edge="1" parent="1" source="c9aiSARojn3Q_ybmlD1e-37" target="c9aiSARojn3Q_ybmlD1e-54">
          <mxGeometry relative="1" as="geometry" />
        </mxCell>
        <mxCell id="c9aiSARojn3Q_ybmlD1e-37" value="Check in background computer info" style="whiteSpace=wrap;html=1;rounded=0;" vertex="1" parent="1">
          <mxGeometry x="370" y="1078" width="120" height="60" as="geometry" />
        </mxCell>
        <mxCell id="c9aiSARojn3Q_ybmlD1e-50" value="" style="edgeStyle=orthogonalEdgeStyle;rounded=0;orthogonalLoop=1;jettySize=auto;html=1;" edge="1" parent="1" source="c9aiSARojn3Q_ybmlD1e-40" target="c9aiSARojn3Q_ybmlD1e-49">
          <mxGeometry relative="1" as="geometry" />
        </mxCell>
        <mxCell id="c9aiSARojn3Q_ybmlD1e-40" value="User Lose" style="whiteSpace=wrap;html=1;rounded=0;" vertex="1" parent="1">
          <mxGeometry x="140" y="940" width="120" height="60" as="geometry" />
        </mxCell>
        <mxCell id="c9aiSARojn3Q_ybmlD1e-42" value="user &amp;gt; 21" style="text;html=1;align=center;verticalAlign=middle;resizable=0;points=[];autosize=1;strokeColor=none;fillColor=none;" vertex="1" parent="1">
          <mxGeometry x="285" y="948" width="70" height="30" as="geometry" />
        </mxCell>
        <mxCell id="c9aiSARojn3Q_ybmlD1e-48" value="" style="edgeStyle=orthogonalEdgeStyle;rounded=0;orthogonalLoop=1;jettySize=auto;html=1;" edge="1" parent="1" source="c9aiSARojn3Q_ybmlD1e-46" target="c9aiSARojn3Q_ybmlD1e-34">
          <mxGeometry relative="1" as="geometry" />
        </mxCell>
        <mxCell id="c9aiSARojn3Q_ybmlD1e-46" value="give 1 random card both" style="whiteSpace=wrap;html=1;" vertex="1" parent="1">
          <mxGeometry x="370" y="798" width="120" height="60" as="geometry" />
        </mxCell>
        <mxCell id="c9aiSARojn3Q_ybmlD1e-49" value="End" style="whiteSpace=wrap;html=1;rounded=0;" vertex="1" parent="1">
          <mxGeometry x="-60" y="940" width="120" height="60" as="geometry" />
        </mxCell>
        <mxCell id="c9aiSARojn3Q_ybmlD1e-51" value="User win&lt;div&gt;print all info&lt;/div&gt;" style="whiteSpace=wrap;html=1;rounded=0;" vertex="1" parent="1">
          <mxGeometry x="600" y="1078" width="120" height="60" as="geometry" />
        </mxCell>
        <mxCell id="c9aiSARojn3Q_ybmlD1e-53" value="computer &amp;gt;21" style="text;html=1;align=center;verticalAlign=middle;resizable=0;points=[];autosize=1;strokeColor=none;fillColor=none;" vertex="1" parent="1">
          <mxGeometry x="490" y="1078" width="100" height="30" as="geometry" />
        </mxCell>
        <mxCell id="c9aiSARojn3Q_ybmlD1e-68" style="edgeStyle=orthogonalEdgeStyle;rounded=0;orthogonalLoop=1;jettySize=auto;html=1;exitX=1;exitY=0.5;exitDx=0;exitDy=0;" edge="1" parent="1" source="c9aiSARojn3Q_ybmlD1e-54" target="c9aiSARojn3Q_ybmlD1e-13">
          <mxGeometry relative="1" as="geometry">
            <Array as="points">
              <mxPoint x="100" y="1100" />
              <mxPoint x="100" y="1210" />
              <mxPoint x="940" y="1210" />
              <mxPoint x="940" y="710" />
            </Array>
          </mxGeometry>
        </mxCell>
        <mxCell id="c9aiSARojn3Q_ybmlD1e-54" value="print all user info&lt;div&gt;first computer info&lt;/div&gt;&lt;div&gt;ask for picking card&lt;/div&gt;" style="whiteSpace=wrap;html=1;rounded=0;" vertex="1" parent="1">
          <mxGeometry x="100" y="1078" width="120" height="60" as="geometry" />
        </mxCell>
        <mxCell id="c9aiSARojn3Q_ybmlD1e-56" value="user &amp;lt; 21&amp;nbsp;" style="text;html=1;align=center;verticalAlign=middle;resizable=0;points=[];autosize=1;strokeColor=none;fillColor=none;" vertex="1" parent="1">
          <mxGeometry x="360" y="1020" width="80" height="30" as="geometry" />
        </mxCell>
        <mxCell id="c9aiSARojn3Q_ybmlD1e-57" value="computer &amp;lt; 21" style="text;html=1;align=center;verticalAlign=middle;resizable=0;points=[];autosize=1;strokeColor=none;fillColor=none;" vertex="1" parent="1">
          <mxGeometry x="240" y="1078" width="100" height="30" as="geometry" />
        </mxCell>
        <mxCell id="c9aiSARojn3Q_ybmlD1e-62" value="" style="edgeStyle=orthogonalEdgeStyle;rounded=0;orthogonalLoop=1;jettySize=auto;html=1;" edge="1" parent="1" source="c9aiSARojn3Q_ybmlD1e-58" target="c9aiSARojn3Q_ybmlD1e-61">
          <mxGeometry relative="1" as="geometry">
            <Array as="points">
              <mxPoint x="630" y="920" />
              <mxPoint x="740" y="920" />
              <mxPoint x="740" y="900" />
            </Array>
          </mxGeometry>
        </mxCell>
        <mxCell id="c9aiSARojn3Q_ybmlD1e-66" value="" style="edgeStyle=orthogonalEdgeStyle;rounded=0;orthogonalLoop=1;jettySize=auto;html=1;" edge="1" parent="1" source="c9aiSARojn3Q_ybmlD1e-58" target="c9aiSARojn3Q_ybmlD1e-65">
          <mxGeometry relative="1" as="geometry" />
        </mxCell>
        <mxCell id="c9aiSARojn3Q_ybmlD1e-58" value="check computer info" style="whiteSpace=wrap;html=1;rounded=0;" vertex="1" parent="1">
          <mxGeometry x="570" y="940" width="120" height="60" as="geometry" />
        </mxCell>
        <mxCell id="c9aiSARojn3Q_ybmlD1e-60" value="user = 21" style="text;html=1;align=center;verticalAlign=middle;resizable=0;points=[];autosize=1;strokeColor=none;fillColor=none;" vertex="1" parent="1">
          <mxGeometry x="490" y="948" width="70" height="30" as="geometry" />
        </mxCell>
        <mxCell id="c9aiSARojn3Q_ybmlD1e-61" value="Draw!" style="whiteSpace=wrap;html=1;rounded=0;" vertex="1" parent="1">
          <mxGeometry x="770" y="870" width="120" height="60" as="geometry" />
        </mxCell>
        <mxCell id="c9aiSARojn3Q_ybmlD1e-63" value="computer = 21" style="text;html=1;align=center;verticalAlign=middle;resizable=0;points=[];autosize=1;strokeColor=none;fillColor=none;" vertex="1" parent="1">
          <mxGeometry x="650" y="900" width="100" height="30" as="geometry" />
        </mxCell>
        <mxCell id="c9aiSARojn3Q_ybmlD1e-65" value="User Win" style="whiteSpace=wrap;html=1;rounded=0;" vertex="1" parent="1">
          <mxGeometry x="800" y="960" width="120" height="60" as="geometry" />
        </mxCell>
        <mxCell id="c9aiSARojn3Q_ybmlD1e-67" value="computer ! = 21" style="text;html=1;align=center;verticalAlign=middle;resizable=0;points=[];autosize=1;strokeColor=none;fillColor=none;" vertex="1" parent="1">
          <mxGeometry x="690" y="970" width="110" height="30" as="geometry" />
        </mxCell>
        <mxCell id="c9aiSARojn3Q_ybmlD1e-69" value="" style="endArrow=classic;html=1;rounded=0;" edge="1" parent="1" source="c9aiSARojn3Q_ybmlD1e-25" target="c9aiSARojn3Q_ybmlD1e-10">
          <mxGeometry width="50" height="50" relative="1" as="geometry">
            <mxPoint x="530" y="370" as="sourcePoint" />
            <mxPoint x="580" y="320" as="targetPoint" />
          </mxGeometry>
        </mxCell>
        <mxCell id="c9aiSARojn3Q_ybmlD1e-73" value="" style="edgeStyle=orthogonalEdgeStyle;rounded=0;orthogonalLoop=1;jettySize=auto;html=1;" edge="1" parent="1" source="c9aiSARojn3Q_ybmlD1e-71" target="c9aiSARojn3Q_ybmlD1e-15">
          <mxGeometry relative="1" as="geometry" />
        </mxCell>
        <mxCell id="c9aiSARojn3Q_ybmlD1e-71" value="give 1 random card to computer" style="whiteSpace=wrap;html=1;" vertex="1" parent="1">
          <mxGeometry x="160" y="680" width="120" height="60" as="geometry" />
        </mxCell>
        <mxCell id="c9aiSARojn3Q_ybmlD1e-74" value="&lt;b&gt;&lt;font color=&quot;#ff6130&quot; style=&quot;font-size: 44px;&quot;&gt;Black Jack Game flowchart&lt;/font&gt;&lt;/b&gt;&lt;div&gt;&lt;b&gt;&lt;font style=&quot;font-size: 24px;&quot;&gt;&lt;br&gt;&lt;/font&gt;&lt;/b&gt;&lt;/div&gt;" style="text;html=1;align=left;verticalAlign=middle;resizable=0;points=[];autosize=1;strokeColor=none;fillColor=none;" vertex="1" parent="1">
          <mxGeometry x="-385" y="130" width="590" height="100" as="geometry" />
        </mxCell>
        <mxCell id="c9aiSARojn3Q_ybmlD1e-77" value="" style="edgeStyle=orthogonalEdgeStyle;rounded=0;orthogonalLoop=1;jettySize=auto;html=1;" edge="1" parent="1" source="c9aiSARojn3Q_ybmlD1e-75" target="c9aiSARojn3Q_ybmlD1e-76">
          <mxGeometry relative="1" as="geometry" />
        </mxCell>
        <mxCell id="c9aiSARojn3Q_ybmlD1e-75" value="calculate winner():" style="whiteSpace=wrap;html=1;" vertex="1" parent="1">
          <mxGeometry x="1220" y="650" width="120" height="60" as="geometry" />
        </mxCell>
        <mxCell id="c9aiSARojn3Q_ybmlD1e-79" value="" style="edgeStyle=orthogonalEdgeStyle;rounded=0;orthogonalLoop=1;jettySize=auto;html=1;" edge="1" parent="1" source="c9aiSARojn3Q_ybmlD1e-76" target="c9aiSARojn3Q_ybmlD1e-78">
          <mxGeometry relative="1" as="geometry" />
        </mxCell>
        <mxCell id="c9aiSARojn3Q_ybmlD1e-85" value="" style="edgeStyle=orthogonalEdgeStyle;rounded=0;orthogonalLoop=1;jettySize=auto;html=1;" edge="1" parent="1" source="c9aiSARojn3Q_ybmlD1e-76" target="c9aiSARojn3Q_ybmlD1e-84">
          <mxGeometry relative="1" as="geometry" />
        </mxCell>
        <mxCell id="c9aiSARojn3Q_ybmlD1e-88" value="" style="edgeStyle=orthogonalEdgeStyle;rounded=0;orthogonalLoop=1;jettySize=auto;html=1;" edge="1" parent="1" source="c9aiSARojn3Q_ybmlD1e-76" target="c9aiSARojn3Q_ybmlD1e-87">
          <mxGeometry relative="1" as="geometry" />
        </mxCell>
        <mxCell id="c9aiSARojn3Q_ybmlD1e-76" value="check user" style="whiteSpace=wrap;html=1;" vertex="1" parent="1">
          <mxGeometry x="1220" y="790" width="120" height="60" as="geometry" />
        </mxCell>
        <mxCell id="c9aiSARojn3Q_ybmlD1e-83" value="" style="edgeStyle=orthogonalEdgeStyle;rounded=0;orthogonalLoop=1;jettySize=auto;html=1;" edge="1" parent="1" source="c9aiSARojn3Q_ybmlD1e-78" target="c9aiSARojn3Q_ybmlD1e-82">
          <mxGeometry relative="1" as="geometry" />
        </mxCell>
        <mxCell id="c9aiSARojn3Q_ybmlD1e-78" value="check computer" style="whiteSpace=wrap;html=1;" vertex="1" parent="1">
          <mxGeometry x="1220" y="900" width="120" height="60" as="geometry" />
        </mxCell>
        <mxCell id="c9aiSARojn3Q_ybmlD1e-82" value="reveal Winer" style="whiteSpace=wrap;html=1;" vertex="1" parent="1">
          <mxGeometry x="1220" y="1040" width="120" height="60" as="geometry" />
        </mxCell>
        <mxCell id="c9aiSARojn3Q_ybmlD1e-84" value="User Lose&lt;br&gt;Computer Win" style="whiteSpace=wrap;html=1;" vertex="1" parent="1">
          <mxGeometry x="1020" y="790" width="120" height="60" as="geometry" />
        </mxCell>
        <mxCell id="c9aiSARojn3Q_ybmlD1e-86" value="u &amp;gt; 21" style="text;html=1;align=center;verticalAlign=middle;resizable=0;points=[];autosize=1;strokeColor=none;fillColor=none;" vertex="1" parent="1">
          <mxGeometry x="1150" y="788" width="60" height="30" as="geometry" />
        </mxCell>
        <mxCell id="c9aiSARojn3Q_ybmlD1e-87" value="" style="whiteSpace=wrap;html=1;" vertex="1" parent="1">
          <mxGeometry x="1420" y="790" width="120" height="60" as="geometry" />
        </mxCell>
      </root>
    </mxGraphModel>
  </diagram>
</mxfile>
